# File created by Blade
# Date/Time:  Wed Jan 21 14:37:15 2015
# Frame Rate: 120.000 fps
#------------------------------------------------------
:FULLY-SPECIFIED
:DEGREES
253
root 18.627568 35.612623 -20.949305 -173.733105 -8.012659 -180.402237
Spine -15.459182 5.198694 3.340876
Head -2.326480 -6.866136 -6.818564
LeftShoulder 17.848415 -34.920337 -19.634994
LeftArm 17.873624 23.418748 -76.958153
LeftForeArm -37.962686 0.000000 140.159729
LeftHand -0.169526 -0.000000 23.988847
LeftHandThumb1 -26.253704 0.000000 33.147579
RightShoulder 17.125956 60.365261 -33.600176
RightArm 95.532233 -30.950816 63.844874
RightForeArm -54.479405 -0.000000 118.413058
RightHand -6.484833 -0.000000 7.849592
RightHandThumb1 -24.326973 -0.000000 -32.862282
LeftUpLeg -1.240212 9.186463 -0.028767
LeftLeg -5.685925 -0.000000 0.000000
LeftFoot -17.267105 26.607377 -12.057127
LeftToeBase 26.366985 -0.000000 -0.000000
RightUpLeg 0.131536 -12.980506 0.168632
RightLeg -3.849412 -0.000000 0.000000
RightFoot -20.119271 -28.648740 12.990672
RightToeBase 23.992383 -0.000000 -0.000000
254
root 18.630989 35.610933 -20.955677 -173.724319 -8.016041 -180.394846
Spine -15.470569 5.213372 3.318720
Head -2.294265 -6.814887 -6.714474
LeftShoulder 17.932295 -34.984572 -19.642380
LeftArm 17.860872 23.435069 -76.996793
LeftForeArm -37.738198 -0.000000 140.125891
LeftHand -0.213835 0.000000 23.962752
LeftHandThumb1 -26.253704 0.000000 33.147579
RightShoulder 17.023363 60.376133 -33.629751
RightArm 95.588881 -30.961027 63.771680
RightForeArm -54.478140 -0.000000 118.413367
RightHand -6.491175 -0.000000 7.889547
RightHandThumb1 -24.326973 -0.000000 -32.862282
LeftUpLeg -1.238414 9.179288 -0.015271
LeftLeg -5.691523 -0.000000 0.000000
LeftFoot -17.284738 26.627727 -12.038582
LeftToeBase 26.370417 -0.000000 -0.000000
RightUpLeg 0.132404 -12.964796 0.182626
RightLeg -3.849171 -0.000000 0.000000
RightFoot -20.136980 -28.670632 13.003794
RightToeBase 23.995188 -0.000000 -0.000000
255
root 18.635800 35.610133 -20.961279 -173.721822 -8.015470 -180.375754
Spine -15.492775 5.217476 3.310309
Head -2.185917 -6.752519 -6.616516
LeftShoulder 18.019740 -35.018838 -19.663307
LeftArm 17.865171 23.433563 -77.015951
LeftForeArm -37.580400 -0.000000 140.086673
LeftHand -0.205337 -0.000000 23.991730
LeftHandThumb1 -26.253704 0.000000 33.147579
RightShoulder 17.025103 60.354802 -33.567123
RightArm 95.651373 -30.940475 63.667416
RightForeArm -54.521785 -0.000000 118.420520
RightHand -6.474597 0.000000 7.938959
RightHandThumb1 -24.326973 -0.000000 -32.862282
LeftUpLeg -1.230653 9.176672 0.012006
LeftLeg -5.703426 -0.000000 0.000000
LeftFoot -17.284841 26.644864 -12.008094
LeftToeBase 26.344553 -0.000000 -0.000000
RightUpLeg 0.139838 -12.936415 0.207516
RightLeg -3.855052 -0.000000 0.000000
RightFoot -20.145440 -28.671803 13.069534
RightToeBase 23.877032 -0.000000 -0.000000
256
root 18.639943 35.608289 -20.967150 -173.733186 -8.018269 -180.364415
Spine -15.494064 5.246341 3.275656
Head -2.069496 -6.734362 -6.488846
LeftShoulder 18.158860 -35.049627 -19.716764
LeftArm 17.905029 23.423600 -76.983034
LeftForeArm -37.490037 0.000000 140.039873
LeftHand -0.173809 -0.000000 24.004155
LeftHandThumb1 -26.253704 0.000000 33.147579
RightShoulder 16.865784 60.232581 -33.623832
RightArm 95.777589 -30.889100 63.545933
RightForeArm -54.505350 -0.000000 118.438946
RightHand -6.379013 0.000000 7.982227
RightHandThumb1 -24.326973 -0.000000 -32.862282
LeftUpLeg -1.207461 9.157328 0.033455
LeftLeg -5.712318 -0.000000 0.000000
LeftFoot -17.307065 26.671870 -12.005684
LeftToeBase 26.384820 -0.000000 -0.000000
RightUpLeg 0.157644 -12.904202 0.220174
RightLeg -3.852156 -0.000000 0.000000
RightFoot -20.160428 -28.720853 13.007995
RightToeBase 24.033129 -0.000000 -0.000000
257
root 18.644822 35.607008 -20.974624 -173.745688 -8.021375 -180.343768
Spine -15.503154 5.233941 3.272117
Head -1.937080 -6.651588 -6.407944
LeftShoulder 18.216690 -35.066792 -19.735677
LeftArm 17.981832 23.392520 -76.913193
LeftForeArm -37.459433 0.000000 139.999201
LeftHand -0.142466 -0.000000 23.882632
LeftHandThumb1 -26.253704 0.000000 33.147579
RightShoulder 16.797871 60.164583 -33.650950
RightArm 95.850900 -30.834274 63.472413
RightForeArm -54.562011 0.000000 118.486413
RightHand -6.316339 -0.000000 8.043917
RightHandThumb1 -24.326973 -0.000000 -32.862282
LeftUpLeg -1.181883 9.164228 0.066350
LeftLeg -5.724912 -0.000000 0.000000
LeftFoot -17.304537 26.674502 -11.987686
LeftToeBase 26.247217 -0.000000 -0.000000
RightUpLeg 0.184316 -12.905125 0.244298
RightLeg -3.861107 -0.000000 0.000000
RightFoot -20.161035 -28.712952 12.995736
RightToeBase 24.044183 -0.000000 -0.000000
258
root 18.649388 35.605765 -20.981157 -173.745568 -8.019478 -180.324749
Spine -15.523958 5.224160 3.261389
Head -1.804100 -6.580103 -6.315232
LeftShoulder 18.296540 -35.137723 -19.773389
LeftArm 17.986536 23.370154 -76.911471
LeftForeArm -37.341436 0.000000 139.992103
LeftHand -0.242549 0.000000 24.030713
LeftHandThumb1 -26.253704 0.000000 33.147579
RightShoulder 16.704216 60.074520 -33.696001
RightArm 95.953951 -30.758163 63.390878
RightForeArm -54.546468 0.000000 118.542001
RightHand -6.294348 0.000000 8.073963
RightHandThumb1 -24.326973 -0.000000 -32.862282
LeftUpLeg -1.166296 9.158422 0.096284
LeftLeg -5.736888 -0.000000 0.000000
LeftFoot -17.335427 26.722770 -11.905067
LeftToeBase 26.602472 -0.000000 -0.000000
RightUpLeg 0.182081 -12.855288 0.267595
RightLeg -3.840423 -0.000000 0.000000
RightFoot -20.193022 -28.739002 13.025864
RightToeBase 24.001556 -0.000000 -0.000000
259
root 18.653049 35.604977 -20.988744 -173.749867 -8.027217 -180.315290
Spine -15.549233 5.201756 3.240176
Head -1.681030 -6.546380 -6.255857
LeftShoulder 18.359665 -35.173479 -19.811414
LeftArm 18.036827 23.334296 -76.865942
LeftForeArm -37.251191 -0.000000 139.986984
LeftHand -0.352448 -0.000000 24.172369
LeftHandThumb1 -26.253704 0.000000 33.147579
RightShoulder 16.665417 60.039130 -33.696170
RightArm 95.966455 -30.703933 63.373558
RightForeArm -54.538246 -0.000000 118.610698
RightHand -6.260128 -0.000000 8.141745
RightHandThumb1 -24.326973 -0.000000 -32.862282
LeftUpLeg -1.147511 9.153408 0.114639
LeftLeg -5.747876 -0.000000 0.000000
LeftFoot -17.342799 26.725259 -11.894188
LeftToeBase 26.576119 -0.000000 -0.000000
RightUpLeg 0.196761 -12.839085 0.281986
RightLeg -3.840632 -0.000000 0.000000
RightFoot -20.199592 -28.758328 13.039560
RightToeBase 23.978207 -0.000000 -0.000000
260
root 18.656897 35.604617 -20.995637 -173.750045 -8.026280 -180.302139
Spine -15.580241 5.188054 3.218381
Head -1.503909 -6.482808 -6.193194
LeftShoulder 18.400573 -35.211272 -19.822168
LeftArm 18.074301 23.322032 -76.821217
LeftForeArm -37.188644 -0.000000 139.959691
LeftHand -0.370502 -0.000000 24.247454
LeftHandThumb1 -26.253704 0.000000 33.147579
RightShoulder 16.615820 59.959652 -33.706633
RightArm 96.024577 -30.632304 63.345527
RightForeArm -54.530205 0.000000 118.674504
RightHand -6.259881 -0.000000 8.206191
RightHandThumb1 -24.326973 -0.000000 -32.862282
LeftUpLeg -1.134695 9.167872 0.134706
LeftLeg -5.756644 -0.000000 0.000000
LeftFoot -17.348253 26.717548 -11.896062
LeftToeBase 26.602911 -0.000000 -0.000000
RightUpLeg 0.205232 -12.813039 0.299349
RightLeg -3.840421 -0.000000 0.000000
RightFoot -20.209491 -28.780707 13.047004
RightToeBase 23.968549 -0.000000 -0.000000
261
root 18.660867 35.604407 -21.003021 -173.751889 -8.037921 -180.292518
Spine -15.604313 5.156687 3.189924
Head -1.369862 -6.421069 -6.097583
LeftShoulder 18.414179 -35.272721 -19.793146
LeftArm 18.072464 23.322716 -76.799468
LeftForeArm -37.153125 -0.000000 139.915962
LeftHand -0.372687 0.000000 24.260109
LeftHandThumb1 -26.253704 0.000000 33.147579
RightShoulder 16.566191 59.939004 -33.700946
RightArm 96.026900 -30.588793 63.360336
RightForeArm -54.512865 -0.000000 118.738399
RightHand -6.260499 -0.000000 8.252545
RightHandThumb1 -24.326973 -0.000000 -32.862282
LeftUpLeg -1.118878 9.154498 0.155103
LeftLeg -5.766508 -0.000000 0.000000
LeftFoot -17.350611 26.730499 -11.896155
LeftToeBase 26.609937 -0.000000 -0.000000
RightUpLeg 0.217213 -12.811934 0.316332
RightLeg -3.839529 -0.000000 0.000000
RightFoot -20.234554 -28.769206 13.129017
RightToeBase 23.846605 -0.000000 -0.000000
262
root 18.665006 35.604397 -21.010792 -173.755555 -8.047044 -180.284278
Spine -15.632396 5.121617 3.154860
Head -1.214509 -6.374605 -6.001561
LeftShoulder 18.433499 -35.292528 -19.765700
LeftArm 18.091301 23.320766 -76.750264
LeftForeArm -37.111292 -0.000000 139.826909
LeftHand -0.172201 -0.000000 24.101597
LeftHandThumb1 -26.253704 0.000000 33.147579
RightShoulder 16.533749 59.864123 -33.670308
RightArm 96.068428 -30.532624 63.363632
RightForeArm -54.528098 -0.000000 118.794967
RightHand -6.282755 -0.000000 8.301956
RightHandThumb1 -24.326973 -0.000000 -32.862282
LeftUpLeg -1.102067 9.147825 0.174213
LeftLeg -5.772698 -0.000000 0.000000
LeftFoot -17.354891 26.728892 -11.904866
LeftToeBase 26.602654 -0.000000 -0.000000
RightUpLeg 0.235700 -12.828167 0.330328
RightLeg -3.845640 -0.000000 0.000000
RightFoot -20.222552 -28.764963 13.113380
RightToeBase 23.893175 -0.000000 -0.000000
263
root 18.668595 35.604161 -21.017459 -173.756396 -8.041602 -180.285296
Spine -15.662510 5.119959 3.103165
Head -1.047197 -6.348519 -5.909842
LeftShoulder 18.469907 -35.291745 -19.761729
LeftArm 18.139846 23.284344 -76.691336
LeftForeArm -37.185893 -0.000000 139.802292
LeftHand -0.206571 -0.000000 24.136369
LeftHandThumb1 -26.253704 0.000000 33.147579
RightShoulder 16.488999 59.806523 -33.656489
RightArm 96.066570 -30.488445 63.398948
RightForeArm -54.509063 -0.000000 118.849132
RightHand -6.339908 -0.000000 8.279711
RightHandThumb1 -24.326973 -0.000000 -32.862282
LeftUpLeg -1.087172 9.146118 0.181197
LeftLeg -5.781931 -0.000000 0.000000
LeftFoot -17.354330 26.746873 -11.901649
LeftToeBase 26.607608 -0.000000 -0.000000
RightUpLeg 0.241373 -12.844330 0.335728
RightLeg -3.838847 -0.000000 0.000000
RightFoot -20.232573 -28.756174 13.081487
RightToeBase 23.919292 -0.000000 -0.000000
264
root 18.671591 35.604279 -21.025453 -173.754866 -8.042688 -180.289997
Spine -15.692397 5.091679 3.050376
Head -0.914568 -6.324684 -5.838219
LeftShoulder 18.447098 -35.276461 -19.715710
LeftArm 18.202716 23.269861 -76.616690
LeftForeArm -37.334343 -0.000000 139.768972
LeftHand -0.158589 -0.000000 24.075546
LeftHandThumb1 -26.253704 0.000000 33.147579
RightShoulder 16.453350 59.733740 -33.636428
RightArm 96.094814 -30.443374 63.444423
RightForeArm -54.565576 -0.000000 118.894404
RightHand -6.413859 -0.000000 8.186157
RightHandThumb1 -24.326973 -0.000000 -32.862282
LeftUpLeg -1.074672 9.155476 0.185187
LeftLeg -5.785148 -0.000000 0.000000
LeftFoot -17.356816 26.724176 -11.925052
LeftToeBase 26.603130 -0.000000 -0.000000
RightUpLeg 0.255157 -12.864503 0.336268
RightLeg -3.842646 -0.000000 0.000000
RightFoot -20.236506 -28.738393 13.083859
RightToeBase 23.890247 -0.000000 -0.000000
265
root 18.674498 35.604131 -21.034036 -173.760318 -8.043704 -180.289446
Spine -15.721253 5.082155 3.004631
Head -0.756364 -6.323900 -5.793006
LeftShoulder 18.406935 -35.185934 -19.658355
LeftArm 18.342007 23.261390 -76.500428
LeftForeArm -37.435522 -0.000000 139.740976
LeftHand -0.142523 -0.000000 24.088588
LeftHandThumb1 -26.253704 0.000000 33.147579
RightShoulder 16.436100 59.665756 -33.613887
RightArm 96.086152 -30.405877 63.504050
RightForeArm -54.591344 0.000000 118.940340
RightHand -6.424730 -0.000000 8.206009
RightHandThumb1 -24.326973 -0.000000 -32.862282
LeftUpLeg -1.058910 9.151827 0.193695
LeftLeg -5.777631 -0.000000 0.000000
LeftFoot -17.366709 26.728803 -11.938582
LeftToeBase 26.567272 -0.000000 -0.000000
RightUpLeg 0.270596 -12.904095 0.340961
RightLeg -3.836593 -0.000000 0.000000
RightFoot -20.242429 -28.709240 13.068094
RightToeBase 23.932438 -0.000000 -0.000000
